<svg xmlns="http://www.w3.org/2000/svg" width="114.125" height="114.165" viewBox="0 0 114.125 114.165"><defs><style>.a{fill:none;stroke:#1cd8c0;stroke-linecap:round;stroke-miterlimit:10;stroke-width:2px;}</style></defs><g transform="translate(-813.3 -445.319)"><path class="a" d="M875.457,446.407A56.173,56.173,0,0,1,926.369,499.1"/><path class="a" d="M814.852,493.959a56.179,56.179,0,0,1,47.946-47.28"/><path class="a" d="M865.852,558.407a56.143,56.143,0,0,1-51.483-51.969"/><path class="a" d="M925.664,511.863a56.163,56.163,0,0,1-46.034,45.951"/><circle class="a" cx="4" cy="4" r="4" transform="translate(876.269 488.508)"/><circle class="a" cx="4" cy="4" r="4" transform="translate(866.369 478.608)"/><circle class="a" cx="4" cy="4" r="4" transform="translate(886.168 498.407)"/><circle class="a" cx="4" cy="4" r="4" transform="translate(866.369 498.407)"/><circle class="a" cx="4" cy="4" r="4" transform="translate(856.47 488.508)"/><circle class="a" cx="4" cy="4" r="4" transform="translate(876.269 508.307)"/><circle class="a" cx="4" cy="4" r="4" transform="translate(856.47 508.307)"/><circle class="a" cx="4" cy="4" r="4" transform="translate(846.57 498.407)"/><circle class="a" cx="4" cy="4" r="4" transform="translate(866.369 518.206)"/></g></svg>