<svg xmlns="http://www.w3.org/2000/svg" width="82.828" height="82.828" viewBox="0 0 82.828 82.828"><defs><style>.a{opacity:0.3;}.b{fill:none;stroke:#ffc53c;stroke-linecap:round;stroke-linejoin:round;stroke-width:2px;}</style></defs><g class="a" transform="translate(-554.564 -475.943)"><g transform="translate(555.979 477.357)"><line class="b" y1="26.971" x2="26.558" transform="translate(53.441)"/><path class="b" d="M76.436,651.392v-23.33H53.462" transform="translate(-51.527 -572.893)"/><path class="b" d="M96.183,585.587v23.329h22.972" transform="translate(-42.773 -581.596)"/><line class="b" y1="24.831" x2="24.73" transform="translate(0 55.169)"/><line class="b" x1="25.682" y1="26.081"/><path class="b" d="M77.252,584.849v23.328H54.279" transform="translate(-51.359 -581.747)"/><line class="b" x2="22.65" y2="22.998" transform="translate(57.058 57.002)"/><path class="b" d="M99.185,652.624V629.293h22.972" transform="translate(-42.158 -572.641)"/><g transform="translate(14.88 15.902)"><path class="b" d="M64.205,620.594h24.74V595.473" transform="translate(-64.205 -595.473)"/><line class="b" y1="19.866" transform="translate(24.736 30.373)"/><line class="b" y1="25.121" transform="translate(24.736)"/><line class="b" y1="19.866" transform="translate(24.736 30.373)"/><line class="b" x1="19.563" transform="translate(29.911 25.121)"/></g></g></g></svg>