<svg xmlns="http://www.w3.org/2000/svg" width="114" height="114" viewBox="0 0 114 114"><defs><style>.a,.b{fill:none;stroke-linecap:round;stroke-linejoin:round;stroke-width:2px;}.a{stroke:#ffbf27;}.b{stroke:#ffc53c;}</style></defs><g transform="translate(-521.37 -443.038)"><circle class="a" cx="56" cy="56" r="56" transform="translate(522.37 444.038)"/><g transform="translate(555.979 477.357)"><line class="b" y1="15.304" x2="15.07" transform="translate(30.323)"/><path class="b" d="M66.5,641.3V628.062H53.462" transform="translate(-52.364 -596.758)"/><path class="b" d="M96.183,585.587v13.238h13.035" transform="translate(-65.877 -583.323)"/><line class="b" y1="14.09" x2="14.032" transform="translate(0 31.304)"/><line class="b" x1="14.573" y1="14.799"/><path class="b" d="M67.314,584.849v13.237H54.279" transform="translate(-52.622 -583.089)"/><line class="b" x2="12.852" y2="13.05" transform="translate(32.376 32.344)"/><path class="b" d="M99.185,642.531V629.293H112.22" transform="translate(-66.827 -597.147)"/><g transform="translate(8.443 9.023)"><path class="b" d="M64.205,609.727H78.243V595.473" transform="translate(-64.205 -595.473)"/><line class="b" y1="11.273" transform="translate(14.036 17.234)"/><line class="b" y1="14.254" transform="translate(14.036)"/><line class="b" y1="11.273" transform="translate(14.036 17.234)"/><line class="b" x1="11.101" transform="translate(16.972 14.254)"/></g></g></g></svg>