<svg xmlns="http://www.w3.org/2000/svg" width="62" height="62" viewBox="0 0 62 62"><defs><style>.a{fill:none;stroke:#000;stroke-linecap:round;stroke-linejoin:round;stroke-width:2px;}</style></defs><g transform="translate(-714.571 -1953.657)"><path class="a" d="M763.207,1968.475v-4.091c0-.955-3.687-2.727-6.818-2.727s-6.818,1.773-6.818,2.727v4.091" transform="translate(12.364 2.545)"/><path class="a" d="M751.571,1958.748a4.091,4.091,0,0,1,8.182,0v1.364a4.091,4.091,0,0,1-8.182,0Z" transform="translate(13.091)"/><path class="a" d="M763.207,2000.475v-4.091c0-.954-3.687-2.727-6.818-2.727s-6.818,1.773-6.818,2.727v4.091" transform="translate(12.364 14.182)"/><path class="a" d="M751.571,1990.748a4.091,4.091,0,1,1,8.182,0v1.364a4.091,4.091,0,1,1-8.182,0Z" transform="translate(13.091 11.636)"/><path class="a" d="M742.353,2000.1a17.7,17.7,0,1,0-17.746-17.7A17.648,17.648,0,0,0,742.353,2000.1Z" transform="translate(3.286 3.65)"/><path class="a" d="M757.2,1989.908a27.345,27.345,0,0,0-2.344-22.25" transform="translate(14.284 4.728)"/><path class="a" d="M715.571,1968.475v-4.091c0-.955,3.687-2.727,6.818-2.727s6.818,1.773,6.818,2.727v4.091" transform="translate(0 2.545)"/><path class="a" d="M725.753,1958.748a4.091,4.091,0,0,0-8.182,0v1.364a4.091,4.091,0,0,0,8.182,0Z" transform="translate(0.727)"/><path class="a" d="M715.571,2000.475v-4.091c0-.954,3.687-2.727,6.818-2.727s6.818,1.773,6.818,2.727v4.091" transform="translate(0 14.182)"/><path class="a" d="M725.753,1990.748a4.091,4.091,0,1,0-8.182,0v1.364a4.091,4.091,0,1,0,8.182,0Z" transform="translate(0.727 11.636)"/><path class="a" d="M718.9,1989.908a27.33,27.33,0,0,1,2.344-22.25" transform="translate(0.716 4.728)"/><path class="a" d="M728.536,1995.553a27.091,27.091,0,0,0,12.18,2.869h.232a27.094,27.094,0,0,0,12.181-2.87" transform="translate(4.715 14.871)"/><path class="a" d="M727.54,1961.355a27.2,27.2,0,0,1,13.679-3.7h-.048a27.186,27.186,0,0,1,13.679,3.685" transform="translate(4.352 1.091)"/><path class="a" d="M740.1,1964.662c-5.285,0-9.57,7.937-9.57,17.726s4.285,17.726,9.57,17.726,9.571-7.937,9.571-17.726S745.391,1964.662,740.1,1964.662Z" transform="translate(5.441 3.638)"/><line class="a" x1="32.727" transform="translate(729.207 1979.202)"/><line class="a" x1="32.727" transform="translate(729.207 1992.839)"/><line class="a" y2="35.455" transform="translate(745.571 1968.293)"/></g></svg>